<?xml version="1.0" encoding="UTF-8"?>
<svg width="14px" height="19px" viewBox="0 0 14 19" version="1.1" xmlns="http://www.w3.org/2000/svg" xmlns:xlink="http://www.w3.org/1999/xlink">
    <title>0DE798DF-6BF1-4BDC-BFA9-A8339F423D0F</title>
    <defs>
        <filter id="filter-1">
            <feColorMatrix in="SourceGraphic" type="matrix" values="0 0 0 0 1.000000 0 0 0 0 1.000000 0 0 0 0 1.000000 0 0 0 1.000000 0"></feColorMatrix>
        </filter>
    </defs>
    <g id="Page-1" stroke="none" stroke-width="1" fill="none" fill-rule="evenodd">
        <g id="candado" transform="translate(-421.000000, -455.000000)" filter="url(#filter-1)">
            <g transform="translate(421.000000, 455.000000)">
                <path d="M12.1434872,8.08013568 L12.1434872,5.07123172 C12.1517201,3.70977316 11.5960012,2.4006784 10.60394,1.44604622 C9.64481035,0.511553954 8.38929727,0 7.05968833,0 C7.03910615,0 7.01440753,0 6.99382535,0 C4.15760071,0.00402798389 1.85239635,2.2758109 1.85239635,5.07123172 L1.85239635,8.08013568 C0.782122905,8.20500318 0,9.08310367 0,10.1464914 L0,16.9054484 C0,18.0534238 0.938547486,19 2.11173184,19 L11.8882682,19 C13.0614525,19 14,18.0534238 14,16.9054484 L14,10.1464914 C13.9958836,9.08713165 13.2137607,8.20500318 12.1434872,8.08013568 Z M2.67156719,5.07123172 L2.67568362,5.07123172 C2.67568362,2.71888912 4.61452514,0.793485353 6.99794178,0.793485353 L7.00205822,0.793485353 C8.13407821,0.789484842 9.22081741,1.22853509 10.0235225,2.00996396 C10.8591591,2.81958872 11.3243164,3.92325631 11.3160835,5.07123172 L11.3160835,8.08416366 L10.4104675,8.08416366 L10.4104675,5.07123172 C10.4187004,4.15687937 10.0482211,3.27877888 9.38547486,2.63430146 C8.75977654,2.02204791 7.91179065,1.6756413 7.02675684,1.6756413 L7.00205822,1.6756413 C5.1084975,1.6756413 3.57718318,3.19821921 3.57718318,5.06720373 L3.57718318,8.08416366 L2.67156719,8.08416366 L2.67156719,5.07123172 L2.67156719,5.07123172 Z M9.59129668,5.07123172 L9.59129668,8.08416366 L4.40458689,8.08416366 L4.40458689,5.07123172 C4.40458689,3.64532542 5.56542193,2.48526606 7.00617465,2.48526606 L7.03087327,2.48526606 C7.69773596,2.48526606 8.33990003,2.74708501 8.81329021,3.21030316 C9.31549544,3.70171719 9.59952955,4.3743905 9.59129668,5.07123172 Z M13.2137607,16.9175323 L13.2137607,16.9175323 C13.2137607,17.6224295 12.6292267,18.1944032 11.9088503,18.1944032 L2.12819759,18.1944032 C1.40782123,18.1944032 0.823287268,17.6224295 0.823287268,16.9175323 L0.823287268,10.1666313 C0.823287268,9.46173415 1.40782123,8.88976044 2.12819759,8.88976044 L11.9088503,8.88976044 C12.6292267,8.88976044 13.2137607,9.46173415 13.2137607,10.1666313 L13.2137607,16.9175323 Z" id="Shape" fill="#000000" fill-rule="nonzero"></path>
                <path d="M8.91948498,12.200552 C8.67555663,11.4875805 7.89387717,11 7.00132118,11 C5.89809981,11 5,11.7405704 5,12.6605336 C5,13.401104 5.58764556,14.049678 6.44693858,14.2520699 L6.44693858,15.5400184 C6.44693858,15.7930083 6.69641075,16 7.00132118,16 C7.30623161,16 7.55570378,15.7930083 7.55570378,15.5400184 L7.55570378,14.2520699 C8.61457455,13.99908 9.22993923,13.0791168 8.91948498,12.200552 Z M7.00132118,13.3965041 C6.50792067,13.3965041 6.1087652,13.0653174 6.1087652,12.6559338 C6.1087652,12.2465501 6.50792067,11.9153634 7.00132118,11.9153634 C7.4947217,11.9153634 7.89387717,12.2465501 7.89387717,12.6559338 C7.89387717,13.0653174 7.4947217,13.3965041 7.00132118,13.3965041 Z" id="Shape" fill="#000000" fill-rule="nonzero"></path>
            </g>
        </g>
    </g>
</svg>